# xmcd
# 
# Track frame offsets:
#     150
#     13578
#     30353
#     48494
#     60947
#     71475
#     84057
#     99406
#     115499
#     129927
# 
# Disc length: 1932
# 
# Revision: 0
# Processed by: cddbd v1.5.2PL0 Copyright (c) Steve Scherf et al.
# Submitted via: BonkEnc v1.0.15
# 
DISCID=6e078a0a
DTITLE=MIŠO KOVAČ - Ostala si uvijek ista
DYEAR=1985
DGENRE=Zabavni
TTITLE0=Jedan dan života
TTITLE1=Čemu da živim
TTITLE2=Ostala si uvijek ista
TTITLE3=Sve što mi život pruža
TTITLE4=Ja odlazim
TTITLE5=Vrijeme plakanja
TTITLE6=Zelena trava doma mog
TTITLE7=Više se nećeš vratiti
TTITLE8=Reci,zbogom
TTITLE9=Što znači život moj
EXTD=
EXTT0=
EXTT1=
EXTT2=
EXTT3=
EXTT4=
EXTT5=
EXTT6=
EXTT7=
EXTT8=
EXTT9=
PLAYORDER=
